<?xml version="1.0" encoding="UTF-8"?>
<!DOCTYPE svg PUBLIC "-//W3C//DTD SVG 1.1//EN" "http://www.w3.org/Graphics/SVG/1.1/DTD/svg11.dtd">
<svg version="1.2" viewBox="10399 8945 4627 4792" preserveAspectRatio="xMidYMid" fill-rule="evenodd" stroke-width="28.222" stroke-linejoin="round" xmlns="http://www.w3.org/2000/svg" xmlns:ooo="http://xml.openoffice.org/svg/export" xmlns:xlink="http://www.w3.org/1999/xlink" xmlns:presentation="http://sun.com/xmlns/staroffice/presentation" xmlns:smil="http://www.w3.org/2001/SMIL20/" xmlns:anim="urn:oasis:names:tc:opendocument:xmlns:animation:1.0" xml:space="preserve">
 <defs class="EmbeddedBulletChars">
  <g id="bullet-char-template-57356" transform="scale(0.00048828125,-0.00048828125)">
   <path d="M 580,1141 L 1163,571 580,0 -4,571 580,1141 Z"/>
  </g>
  <g id="bullet-char-template-57354" transform="scale(0.00048828125,-0.00048828125)">
   <path d="M 8,1128 L 1137,1128 1137,0 8,0 8,1128 Z"/>
  </g>
  <g id="bullet-char-template-10146" transform="scale(0.00048828125,-0.00048828125)">
   <path d="M 174,0 L 602,739 174,1481 1456,739 174,0 Z M 1358,739 L 309,1346 659,739 1358,739 Z"/>
  </g>
  <g id="bullet-char-template-10132" transform="scale(0.00048828125,-0.00048828125)">
   <path d="M 2015,739 L 1276,0 717,0 1260,543 174,543 174,936 1260,936 717,1481 1274,1481 2015,739 Z"/>
  </g>
  <g id="bullet-char-template-10007" transform="scale(0.00048828125,-0.00048828125)">
   <path d="M 0,-2 C -7,14 -16,27 -25,37 L 356,567 C 262,823 215,952 215,954 215,979 228,992 255,992 264,992 276,990 289,987 310,991 331,999 354,1012 L 381,999 492,748 772,1049 836,1024 860,1049 C 881,1039 901,1025 922,1006 886,937 835,863 770,784 769,783 710,716 594,584 L 774,223 C 774,196 753,168 711,139 L 727,119 C 717,90 699,76 672,76 641,76 570,178 457,381 L 164,-76 C 142,-110 111,-127 72,-127 30,-127 9,-110 8,-76 1,-67 -2,-52 -2,-32 -2,-23 -1,-13 0,-2 Z"/>
  </g>
  <g id="bullet-char-template-10004" transform="scale(0.00048828125,-0.00048828125)">
   <path d="M 285,-33 C 182,-33 111,30 74,156 52,228 41,333 41,471 41,549 55,616 82,672 116,743 169,778 240,778 293,778 328,747 346,684 L 369,508 C 377,444 397,411 428,410 L 1163,1116 C 1174,1127 1196,1133 1229,1133 1271,1133 1292,1118 1292,1087 L 1292,965 C 1292,929 1282,901 1262,881 L 442,47 C 390,-6 338,-33 285,-33 Z"/>
  </g>
  <g id="bullet-char-template-9679" transform="scale(0.00048828125,-0.00048828125)">
   <path d="M 813,0 C 632,0 489,54 383,161 276,268 223,411 223,592 223,773 276,916 383,1023 489,1130 632,1184 813,1184 992,1184 1136,1130 1245,1023 1353,916 1407,772 1407,592 1407,412 1353,268 1245,161 1136,54 992,0 813,0 Z"/>
  </g>
  <g id="bullet-char-template-8226" transform="scale(0.00048828125,-0.00048828125)">
   <path d="M 346,457 C 273,457 209,483 155,535 101,586 74,649 74,723 74,796 101,859 155,911 209,963 273,989 346,989 419,989 480,963 531,910 582,859 608,796 608,723 608,648 583,586 532,535 482,483 420,457 346,457 Z"/>
  </g>
  <g id="bullet-char-template-8211" transform="scale(0.00048828125,-0.00048828125)">
   <path d="M -4,459 L 1135,459 1135,606 -4,606 -4,459 Z"/>
  </g>
  <g id="bullet-char-template-61548" transform="scale(0.00048828125,-0.00048828125)">
   <path d="M 173,740 C 173,903 231,1043 346,1159 462,1274 601,1332 765,1332 928,1332 1067,1274 1183,1159 1299,1043 1357,903 1357,740 1357,577 1299,437 1183,322 1067,206 928,148 765,148 601,148 462,206 346,322 231,437 173,577 173,740 Z"/>
  </g>
 </defs>
 <g ooo:name="page2" class="Page">
  <g class="Group">
   <g class="com.sun.star.drawing.CustomShape">
    <g id="id3">
     <rect class="BoundingBox" stroke="none" fill="none" x="10399" y="10319" width="3418" height="3418"/>
     <path fill="rgb(255,255,255)" stroke="none" d="M 13815,12028 C 13815,12327 13736,12622 13586,12881 13436,13141 13221,13356 12961,13506 12702,13656 12407,13735 12108,13735 11808,13735 11513,13656 11254,13506 10994,13356 10779,13141 10629,12881 10479,12622 10400,12327 10400,12028 10400,11728 10479,11433 10629,11174 10779,10914 10994,10699 11254,10549 11513,10399 11808,10320 12108,10320 12407,10320 12702,10399 12961,10549 13221,10699 13436,10914 13586,11174 13736,11433 13815,11728 13815,12027 L 13815,12028 Z M 12961,12028 C 12961,12177 12922,12325 12847,12454 12772,12584 12664,12692 12534,12767 12405,12842 12257,12881 12108,12881 11958,12881 11810,12842 11681,12767 11551,12692 11443,12584 11368,12454 11293,12325 11254,12177 11254,12028 11254,11878 11293,11730 11368,11601 11443,11471 11551,11363 11681,11288 11810,11213 11958,11174 12108,11174 12257,11174 12405,11213 12534,11288 12664,11363 12772,11471 12847,11601 12922,11730 12961,11878 12961,12028 L 12961,12028 Z"/>
     <path fill="none" stroke="rgb(255,255,255)" d="M 13815,12028 C 13815,12327 13736,12622 13586,12881 13436,13141 13221,13356 12961,13506 12702,13656 12407,13735 12108,13735 11808,13735 11513,13656 11254,13506 10994,13356 10779,13141 10629,12881 10479,12622 10400,12327 10400,12028 10400,11728 10479,11433 10629,11174 10779,10914 10994,10699 11254,10549 11513,10399 11808,10320 12108,10320 12407,10320 12702,10399 12961,10549 13221,10699 13436,10914 13586,11174 13736,11433 13815,11728 13815,12027 L 13815,12028 Z"/>
     <path fill="none" stroke="rgb(255,255,255)" d="M 12961,12028 C 12961,12177 12922,12325 12847,12454 12772,12584 12664,12692 12534,12767 12405,12842 12257,12881 12108,12881 11958,12881 11810,12842 11681,12767 11551,12692 11443,12584 11368,12454 11293,12325 11254,12177 11254,12028 11254,11878 11293,11730 11368,11601 11443,11471 11551,11363 11681,11288 11810,11213 11958,11174 12108,11174 12257,11174 12405,11213 12534,11288 12664,11363 12772,11471 12847,11601 12922,11730 12961,11878 12961,12028 Z"/>
    </g>
   </g>
   <g class="com.sun.star.drawing.CustomShape">
    <g id="id4">
     <rect class="BoundingBox" stroke="none" fill="none" x="12528" y="8945" width="2498" height="2498"/>
     <path fill="rgb(255,255,255)" stroke="none" d="M 12529,10754 L 13701,9582 13346,9227 15024,8946 14743,10626 14388,10270 13216,11441 12529,10754 Z"/>
     <path fill="none" stroke="rgb(255,255,255)" d="M 12529,10754 L 13701,9582 13346,9227 15024,8946 14743,10626 14388,10270 13216,11441 12529,10754 Z"/>
    </g>
   </g>
  </g>
 </g>
</svg>