<?xml version="1.0" encoding="UTF-8"?>
<!DOCTYPE svg PUBLIC "-//W3C//DTD SVG 1.1//EN" "http://www.w3.org/Graphics/SVG/1.1/DTD/svg11.dtd">
<svg version="1.2" viewBox="10309 1563 10188 13376" preserveAspectRatio="xMidYMid" fill-rule="evenodd" stroke-width="28.222" stroke-linejoin="round" xmlns="http://www.w3.org/2000/svg" xmlns:ooo="http://xml.openoffice.org/svg/export" xmlns:xlink="http://www.w3.org/1999/xlink" xmlns:presentation="http://sun.com/xmlns/staroffice/presentation" xmlns:smil="http://www.w3.org/2001/SMIL20/" xmlns:anim="urn:oasis:names:tc:opendocument:xmlns:animation:1.0" xml:space="preserve">
 <defs class="EmbeddedBulletChars">
  <g id="bullet-char-template-57356" transform="scale(0.00048828125,-0.00048828125)">
   <path d="M 580,1141 L 1163,571 580,0 -4,571 580,1141 Z"/>
  </g>
  <g id="bullet-char-template-57354" transform="scale(0.00048828125,-0.00048828125)">
   <path d="M 8,1128 L 1137,1128 1137,0 8,0 8,1128 Z"/>
  </g>
  <g id="bullet-char-template-10146" transform="scale(0.00048828125,-0.00048828125)">
   <path d="M 174,0 L 602,739 174,1481 1456,739 174,0 Z M 1358,739 L 309,1346 659,739 1358,739 Z"/>
  </g>
  <g id="bullet-char-template-10132" transform="scale(0.00048828125,-0.00048828125)">
   <path d="M 2015,739 L 1276,0 717,0 1260,543 174,543 174,936 1260,936 717,1481 1274,1481 2015,739 Z"/>
  </g>
  <g id="bullet-char-template-10007" transform="scale(0.00048828125,-0.00048828125)">
   <path d="M 0,-2 C -7,14 -16,27 -25,37 L 356,567 C 262,823 215,952 215,954 215,979 228,992 255,992 264,992 276,990 289,987 310,991 331,999 354,1012 L 381,999 492,748 772,1049 836,1024 860,1049 C 881,1039 901,1025 922,1006 886,937 835,863 770,784 769,783 710,716 594,584 L 774,223 C 774,196 753,168 711,139 L 727,119 C 717,90 699,76 672,76 641,76 570,178 457,381 L 164,-76 C 142,-110 111,-127 72,-127 30,-127 9,-110 8,-76 1,-67 -2,-52 -2,-32 -2,-23 -1,-13 0,-2 Z"/>
  </g>
  <g id="bullet-char-template-10004" transform="scale(0.00048828125,-0.00048828125)">
   <path d="M 285,-33 C 182,-33 111,30 74,156 52,228 41,333 41,471 41,549 55,616 82,672 116,743 169,778 240,778 293,778 328,747 346,684 L 369,508 C 377,444 397,411 428,410 L 1163,1116 C 1174,1127 1196,1133 1229,1133 1271,1133 1292,1118 1292,1087 L 1292,965 C 1292,929 1282,901 1262,881 L 442,47 C 390,-6 338,-33 285,-33 Z"/>
  </g>
  <g id="bullet-char-template-9679" transform="scale(0.00048828125,-0.00048828125)">
   <path d="M 813,0 C 632,0 489,54 383,161 276,268 223,411 223,592 223,773 276,916 383,1023 489,1130 632,1184 813,1184 992,1184 1136,1130 1245,1023 1353,916 1407,772 1407,592 1407,412 1353,268 1245,161 1136,54 992,0 813,0 Z"/>
  </g>
  <g id="bullet-char-template-8226" transform="scale(0.00048828125,-0.00048828125)">
   <path d="M 346,457 C 273,457 209,483 155,535 101,586 74,649 74,723 74,796 101,859 155,911 209,963 273,989 346,989 419,989 480,963 531,910 582,859 608,796 608,723 608,648 583,586 532,535 482,483 420,457 346,457 Z"/>
  </g>
  <g id="bullet-char-template-8211" transform="scale(0.00048828125,-0.00048828125)">
   <path d="M -4,459 L 1135,459 1135,606 -4,606 -4,459 Z"/>
  </g>
  <g id="bullet-char-template-61548" transform="scale(0.00048828125,-0.00048828125)">
   <path d="M 173,740 C 173,903 231,1043 346,1159 462,1274 601,1332 765,1332 928,1332 1067,1274 1183,1159 1299,1043 1357,903 1357,740 1357,577 1299,437 1183,322 1067,206 928,148 765,148 601,148 462,206 346,322 231,437 173,577 173,740 Z"/>
  </g>
 </defs>
 <g ooo:name="page1" class="Page">
  <g class="Group">
   <g class="Group">
    <g class="com.sun.star.drawing.CustomShape">
     <g id="id3">
      <rect class="BoundingBox" stroke="none" fill="none" x="10309" y="3414" width="4749" height="4792"/>
      <path fill="rgb(67,67,67)" stroke="none" d="M 13822,4681 L 10336,3441 11543,6937 15030,8178 13822,4681 Z"/>
      <path fill="none" stroke="rgb(255,255,255)" stroke-width="53" stroke-linejoin="round" d="M 13822,4681 L 10336,3441 11543,6937 15030,8178 13822,4681 Z"/>
     </g>
    </g>
    <g class="com.sun.star.drawing.CustomShape">
     <g id="id4">
      <rect class="BoundingBox" stroke="none" fill="none" x="10841" y="4284" width="3426" height="3456"/>
      <path fill="rgb(67,67,67)" stroke="none" d="M 13371,5201 L 10868,4311 11734,6821 14239,7712 13371,5201 Z"/>
      <path fill="none" stroke="rgb(255,255,255)" stroke-width="53" stroke-linejoin="round" d="M 13371,5201 L 10868,4311 11734,6821 14239,7712 13371,5201 Z"/>
     </g>
    </g>
   </g>
   <g class="Group">
    <g class="com.sun.star.drawing.CustomShape">
     <g id="id5">
      <rect class="BoundingBox" stroke="none" fill="none" x="15162" y="8549" width="5335" height="4649"/>
      <path fill="rgb(67,67,67)" stroke="none" d="M 20469,8576 L 20467,11146 17879,13170 15189,12731 15226,12050 16804,11777 18131,9226 20469,8576 Z"/>
      <path fill="none" stroke="rgb(255,255,255)" stroke-width="53" stroke-linejoin="round" d="M 20469,8576 L 20467,11146 17879,13170 15189,12731 15226,12050 16804,11777 18131,9226 20469,8576 Z"/>
     </g>
    </g>
    <g class="com.sun.star.drawing.CustomShape">
     <g id="id6">
      <rect class="BoundingBox" stroke="none" fill="none" x="18103" y="9219" width="2394" height="1958"/>
      <path fill="none" stroke="rgb(255,255,255)" stroke-width="53" stroke-linejoin="round" d="M 20469,11149 L 18463,11117 18130,9246"/>
     </g>
    </g>
   </g>
   <g class="com.sun.star.drawing.CustomShape">
    <g id="id7">
     <rect class="BoundingBox" stroke="none" fill="none" x="13039" y="9065" width="4211" height="1998"/>
     <path fill="rgb(67,67,67)" stroke="none" d="M 17222,10118 L 17222,10118 17221,10067 17214,10016 17200,9965 17183,9915 17158,9865 17128,9815 17093,9766 17053,9718 17007,9671 16956,9625 16901,9580 16840,9537 16775,9495 16705,9454 16631,9415 16553,9378 16471,9343 16386,9310 16297,9280 16204,9250 16110,9224 16013,9199 15912,9177 15810,9158 15706,9140 15600,9125 15494,9114 15386,9104 15278,9097 15169,9093 15169,9093 15060,9092 14952,9093 14844,9097 14737,9103 14630,9112 14526,9125 14423,9138 14321,9155 14223,9175 14126,9196 14033,9221 13943,9247 13856,9275 13772,9306 13692,9339 13616,9374 13544,9411 13477,9450 13414,9490 13357,9533 13304,9575 13256,9620 13213,9666 13175,9713 13143,9761 13116,9810 13096,9859 13079,9910 13070,9959 13066,10010 13067,10010 13068,10061 13075,10112 13089,10163 13106,10213 13131,10263 13161,10313 13196,10362 13236,10410 13281,10457 13332,10502 13388,10548 13449,10591 13514,10633 13584,10674 13658,10712 13735,10749 13817,10784 13903,10817 13991,10848 14084,10878 14179,10904 14276,10929 14376,10950 14478,10970 14582,10988 14688,11003 14794,11014 14902,11024 15010,11031 15119,11035 15119,11034 15228,11035 15336,11034 15444,11030 15551,11024 15658,11015 15762,11003 15865,10989 15966,10972 16064,10952 16161,10931 16255,10907 16344,10880 16432,10852 16515,10821 16595,10788 16671,10753 16743,10717 16810,10677 16873,10637 16931,10595 16984,10552 17032,10508 17074,10462 17113,10415 17145,10367 17171,10318 17192,10269 17208,10218 17218,10169 17222,10118 17222,10118 Z"/>
     <path fill="none" stroke="rgb(255,255,255)" stroke-width="53" stroke-linejoin="round" d="M 17222,10118 L 17222,10118 17221,10067 17214,10016 17200,9965 17183,9915 17158,9865 17128,9815 17093,9766 17053,9718 17007,9671 16956,9625 16901,9580 16840,9537 16775,9495 16705,9454 16631,9415 16553,9378 16471,9343 16386,9310 16297,9280 16204,9250 16110,9224 16013,9199 15912,9177 15810,9158 15706,9140 15600,9125 15494,9114 15386,9104 15278,9097 15169,9093 15169,9093 15060,9092 14952,9093 14844,9097 14737,9103 14630,9112 14526,9125 14423,9138 14321,9155 14223,9175 14126,9196 14033,9221 13943,9247 13856,9275 13772,9306 13692,9339 13616,9374 13544,9411 13477,9450 13414,9490 13357,9533 13304,9575 13256,9620 13213,9666 13175,9713 13143,9761 13116,9810 13096,9859 13079,9910 13070,9959 13066,10010 13067,10010 13068,10061 13075,10112 13089,10163 13106,10213 13131,10263 13161,10313 13196,10362 13236,10410 13281,10457 13332,10502 13388,10548 13449,10591 13514,10633 13584,10674 13658,10712 13735,10749 13817,10784 13903,10817 13991,10848 14084,10878 14179,10904 14276,10929 14376,10950 14478,10970 14582,10988 14688,11003 14794,11014 14902,11024 15010,11031 15119,11035 15119,11034 15228,11035 15336,11034 15444,11030 15551,11024 15658,11015 15762,11003 15865,10989 15966,10972 16064,10952 16161,10931 16255,10907 16344,10880 16432,10852 16515,10821 16595,10788 16671,10753 16743,10717 16810,10677 16873,10637 16931,10595 16984,10552 17032,10508 17074,10462 17113,10415 17145,10367 17171,10318 17192,10269 17208,10218 17218,10169 17222,10118 17222,10118 Z"/>
    </g>
   </g>
   <g class="Group">
    <g class="com.sun.star.drawing.CustomShape">
     <g id="id8">
      <rect class="BoundingBox" stroke="none" fill="none" x="12817" y="7345" width="1283" height="4387"/>
      <path fill="rgb(67,67,67)" stroke="none" d="M 13567,7372 L 14072,10252 13433,11704 12844,10380 13266,7375 13567,7372 Z"/>
      <path fill="none" stroke="rgb(255,255,255)" stroke-width="53" stroke-linejoin="round" d="M 13567,7372 L 14072,10252 13433,11704 12844,10380 13266,7375 13567,7372 Z"/>
     </g>
    </g>
    <g class="com.sun.star.drawing.CustomShape">
     <g id="id9">
      <rect class="BoundingBox" stroke="none" fill="none" x="12816" y="9539" width="1274" height="870"/>
      <path fill="rgb(67,67,67)" stroke="none" d="M 14062,10248 L 13470,9566 12843,10381 14062,10248 Z"/>
      <path fill="none" stroke="rgb(255,255,255)" stroke-width="53" stroke-linejoin="round" d="M 14062,10248 L 13470,9566 12843,10381"/>
     </g>
    </g>
   </g>
   <g class="Group">
    <g class="com.sun.star.drawing.CustomShape">
     <g id="id10">
      <rect class="BoundingBox" stroke="none" fill="none" x="13139" y="1563" width="3103" height="6399"/>
      <path fill="rgb(67,67,67)" stroke="none" d="M 16214,4265 L 13656,1590 13166,5259 15724,7934 16214,4265 Z"/>
      <path fill="none" stroke="rgb(255,255,255)" stroke-width="53" stroke-linejoin="round" d="M 16214,4265 L 13656,1590 13166,5259 15724,7934 16214,4265 Z"/>
     </g>
    </g>
    <g class="com.sun.star.drawing.CustomShape">
     <g id="id11">
      <rect class="BoundingBox" stroke="none" fill="none" x="13359" y="2584" width="2243" height="4608"/>
      <path fill="rgb(67,67,67)" stroke="none" d="M 15574,4530 L 13739,2611 13386,5244 15222,7164 15574,4530 Z"/>
      <path fill="none" stroke="rgb(255,255,255)" stroke-width="53" stroke-linejoin="round" d="M 15574,4530 L 13739,2611 13386,5244 15222,7164 15574,4530 Z"/>
     </g>
    </g>
   </g>
   <g class="com.sun.star.drawing.CustomShape">
    <g id="id12">
     <rect class="BoundingBox" stroke="none" fill="none" x="13288" y="6969" width="2898" height="2768"/>
     <path fill="rgb(67,67,67)" stroke="none" d="M 16157,8390 L 16157,8390 16156,8321 16153,8253 16146,8184 16135,8116 16120,8049 16102,7982 16081,7917 16055,7852 16027,7789 15996,7727 15960,7667 15923,7608 15881,7552 15837,7497 15790,7445 15740,7396 15688,7348 15633,7303 15576,7261 15517,7222 15456,7185 15393,7152 15329,7121 15263,7094 15195,7069 15126,7050 15056,7032 14986,7018 14915,7007 14843,7000 14771,6996 14771,6996 14697,6997 14623,7000 14549,7008 14475,7019 14402,7033 14330,7051 14260,7073 14190,7099 14122,7128 14057,7160 13992,7195 13930,7234 13870,7275 13812,7320 13757,7367 13704,7418 13654,7471 13608,7526 13565,7583 13524,7642 13486,7704 13453,7767 13423,7832 13396,7898 13374,7966 13354,8034 13339,8104 13327,8174 13319,8244 13315,8315 13315,8315 13316,8386 13320,8457 13327,8528 13339,8598 13354,8667 13375,8736 13397,8804 13424,8870 13455,8935 13488,8998 13525,9060 13566,9119 13610,9177 13657,9232 13707,9285 13759,9335 13815,9383 13873,9427 13933,9470 13995,9508 14060,9544 14126,9576 14194,9605 14264,9630 14334,9653 14407,9671 14479,9686 14552,9697 14627,9705 14701,9709 14701,9709 14775,9708 14850,9705 14923,9697 14998,9686 15070,9672 15142,9654 15212,9632 15282,9607 15350,9577 15416,9545 15480,9510 15542,9471 15603,9430 15661,9385 15716,9338 15768,9287 15819,9234 15865,9179 15909,9123 15949,9063 15987,9002 16020,8938 16050,8873 16077,8807 16099,8739 16119,8671 16134,8601 16146,8531 16154,8461 16158,8390 16157,8390 Z"/>
     <path fill="none" stroke="rgb(255,255,255)" stroke-width="53" stroke-linejoin="round" d="M 16157,8390 L 16157,8390 16156,8321 16153,8253 16146,8184 16135,8116 16120,8049 16102,7982 16081,7917 16055,7852 16027,7789 15996,7727 15960,7667 15923,7608 15881,7552 15837,7497 15790,7445 15740,7396 15688,7348 15633,7303 15576,7261 15517,7222 15456,7185 15393,7152 15329,7121 15263,7094 15195,7069 15126,7050 15056,7032 14986,7018 14915,7007 14843,7000 14771,6996 14771,6996 14697,6997 14623,7000 14549,7008 14475,7019 14402,7033 14330,7051 14260,7073 14190,7099 14122,7128 14057,7160 13992,7195 13930,7234 13870,7275 13812,7320 13757,7367 13704,7418 13654,7471 13608,7526 13565,7583 13524,7642 13486,7704 13453,7767 13423,7832 13396,7898 13374,7966 13354,8034 13339,8104 13327,8174 13319,8244 13315,8315 13315,8315 13316,8386 13320,8457 13327,8528 13339,8598 13354,8667 13375,8736 13397,8804 13424,8870 13455,8935 13488,8998 13525,9060 13566,9119 13610,9177 13657,9232 13707,9285 13759,9335 13815,9383 13873,9427 13933,9470 13995,9508 14060,9544 14126,9576 14194,9605 14264,9630 14334,9653 14407,9671 14479,9686 14552,9697 14627,9705 14701,9709 14701,9709 14775,9708 14850,9705 14923,9697 14998,9686 15070,9672 15142,9654 15212,9632 15282,9607 15350,9577 15416,9545 15480,9510 15542,9471 15603,9430 15661,9385 15716,9338 15768,9287 15819,9234 15865,9179 15909,9123 15949,9063 15987,9002 16020,8938 16050,8873 16077,8807 16099,8739 16119,8671 16134,8601 16146,8531 16154,8461 16158,8390 16157,8390 Z"/>
    </g>
   </g>
   <g class="Group">
    <g class="com.sun.star.drawing.CustomShape">
     <g id="id13">
      <rect class="BoundingBox" stroke="none" fill="none" x="13409" y="9976" width="2521" height="2944"/>
      <path fill="rgb(67,67,67)" stroke="none" d="M 15902,10457 L 15902,10457 15902,10435 15901,10414 15899,10393 15895,10372 15891,10352 15885,10332 15879,10312 15871,10292 15863,10272 15853,10254 15843,10236 15831,10219 15819,10201 15806,10185 15791,10170 15777,10154 15761,10141 15744,10127 15728,10115 15710,10103 15692,10093 15674,10083 15654,10075 15634,10067 15614,10061 15594,10055 15573,10051 15552,10047 15531,10046 15511,10044 13902,10003 13902,10003 13881,10003 13860,10004 13839,10006 13818,10010 13798,10014 13778,10019 13757,10026 13737,10033 13718,10042 13700,10051 13681,10062 13664,10074 13647,10086 13630,10099 13615,10113 13600,10128 13586,10144 13573,10160 13560,10177 13549,10195 13539,10212 13529,10231 13521,10251 13513,10271 13506,10291 13501,10310 13496,10331 13493,10352 13491,10373 13490,10394 13436,12437 13436,12437 13436,12459 13437,12480 13439,12501 13443,12522 13447,12542 13453,12562 13459,12582 13467,12602 13475,12622 13485,12640 13495,12658 13507,12675 13519,12693 13532,12709 13547,12724 13561,12740 13577,12753 13594,12767 13610,12779 13628,12791 13646,12801 13664,12811 13684,12819 13704,12827 13724,12833 13744,12839 13765,12843 13786,12847 13807,12848 13827,12850 15437,12892 15437,12892 15458,12892 15479,12891 15500,12889 15521,12885 15541,12881 15561,12876 15582,12869 15602,12862 15621,12853 15639,12844 15658,12833 15675,12821 15692,12809 15708,12796 15724,12782 15739,12767 15753,12751 15766,12735 15779,12718 15790,12700 15800,12683 15810,12664 15818,12644 15826,12624 15832,12604 15838,12585 15843,12564 15846,12543 15848,12522 15849,12501 15902,10457 Z"/>
      <path fill="none" stroke="rgb(255,255,255)" stroke-width="53" stroke-linejoin="round" d="M 15902,10457 L 15902,10457 15902,10435 15901,10414 15899,10393 15895,10372 15891,10352 15885,10332 15879,10312 15871,10292 15863,10272 15853,10254 15843,10236 15831,10219 15819,10201 15806,10185 15791,10170 15777,10154 15761,10141 15744,10127 15728,10115 15710,10103 15692,10093 15674,10083 15654,10075 15634,10067 15614,10061 15594,10055 15573,10051 15552,10047 15531,10046 15511,10044 13902,10003 13902,10003 13881,10003 13860,10004 13839,10006 13818,10010 13798,10014 13778,10019 13757,10026 13737,10033 13718,10042 13700,10051 13681,10062 13664,10074 13647,10086 13630,10099 13615,10113 13600,10128 13586,10144 13573,10160 13560,10177 13549,10195 13539,10212 13529,10231 13521,10251 13513,10271 13506,10291 13501,10310 13496,10331 13493,10352 13491,10373 13490,10394 13436,12437 13436,12437 13436,12459 13437,12480 13439,12501 13443,12522 13447,12542 13453,12562 13459,12582 13467,12602 13475,12622 13485,12640 13495,12658 13507,12675 13519,12693 13532,12709 13547,12724 13561,12740 13577,12753 13594,12767 13610,12779 13628,12791 13646,12801 13664,12811 13684,12819 13704,12827 13724,12833 13744,12839 13765,12843 13786,12847 13807,12848 13827,12850 15437,12892 15437,12892 15458,12892 15479,12891 15500,12889 15521,12885 15541,12881 15561,12876 15582,12869 15602,12862 15621,12853 15639,12844 15658,12833 15675,12821 15692,12809 15708,12796 15724,12782 15739,12767 15753,12751 15766,12735 15779,12718 15790,12700 15800,12683 15810,12664 15818,12644 15826,12624 15832,12604 15838,12585 15843,12564 15846,12543 15848,12522 15849,12501 15902,10457 Z"/>
     </g>
    </g>
    <g class="com.sun.star.drawing.CustomShape">
     <g id="id14">
      <rect class="BoundingBox" stroke="none" fill="none" x="13586" y="11662" width="1711" height="932"/>
      <path fill="rgb(67,67,67)" stroke="none" d="M 15269,12566 L 15081,11721 13845,11689 13613,12523 15269,12566 Z"/>
      <path fill="none" stroke="rgb(255,255,255)" stroke-width="53" stroke-linejoin="round" d="M 15269,12566 L 15081,11721 13845,11689 13613,12523 15269,12566 Z"/>
     </g>
    </g>
    <g class="Group">
     <g class="com.sun.star.drawing.CustomShape">
      <g id="id15">
       <rect class="BoundingBox" stroke="none" fill="none" x="14957" y="10186" width="329" height="1640"/>
       <path fill="rgb(67,67,67)" stroke="none" d="M 15101,11795 L 14984,11792 15025,10213 15258,10219 15217,11798 15101,11795 Z"/>
       <path fill="none" stroke="rgb(255,255,255)" stroke-width="53" stroke-linejoin="round" d="M 15101,11795 L 14984,11792 15025,10213 15258,10219 15217,11798 15101,11795 Z"/>
      </g>
     </g>
     <g class="com.sun.star.drawing.CustomShape">
      <g id="id16">
       <rect class="BoundingBox" stroke="none" fill="none" x="14966" y="11371" width="289" height="59"/>
       <path fill="none" stroke="rgb(255,255,255)" stroke-width="53" stroke-linejoin="round" d="M 15227,11402 L 14993,11398"/>
      </g>
     </g>
    </g>
    <g class="Group">
     <g class="com.sun.star.drawing.CustomShape">
      <g id="id17">
       <rect class="BoundingBox" stroke="none" fill="none" x="13718" y="10155" width="330" height="1640"/>
       <path fill="rgb(67,67,67)" stroke="none" d="M 13862,11764 L 13745,11761 13786,10182 14020,10188 13979,11767 13862,11764 Z"/>
       <path fill="none" stroke="rgb(255,255,255)" stroke-width="53" stroke-linejoin="round" d="M 13862,11764 L 13745,11761 13786,10182 14020,10188 13979,11767 13862,11764 Z"/>
      </g>
     </g>
     <g class="com.sun.star.drawing.CustomShape">
      <g id="id18">
       <rect class="BoundingBox" stroke="none" fill="none" x="13729" y="11339" width="290" height="59"/>
       <path fill="none" stroke="rgb(255,255,255)" stroke-width="53" stroke-linejoin="round" d="M 13991,11370 L 13756,11366"/>
      </g>
     </g>
    </g>
    <g class="com.sun.star.drawing.CustomShape">
     <g id="id19">
      <rect class="BoundingBox" stroke="none" fill="none" x="13257" y="9344" width="2483" height="1191"/>
      <path fill="rgb(67,67,67)" stroke="none" d="M 15712,9416 L 14217,9813 14462,9748 13639,9371 13310,9487 13333,9746 13560,9903 13426,9810 13284,9911 13380,10221 14330,10507 15584,10399 15712,9416 Z"/>
      <path fill="none" stroke="rgb(255,255,255)" stroke-width="53" stroke-linejoin="round" d="M 15712,9416 L 14217,9813 14462,9748 13639,9371 13310,9487 13333,9746 13560,9903 13426,9810 13284,9911 13380,10221 14330,10507 15584,10399 15712,9416 Z"/>
     </g>
    </g>
   </g>
   <g class="com.sun.star.drawing.CustomShape">
    <g id="id20">
     <rect class="BoundingBox" stroke="none" fill="none" x="17547" y="8734" width="1276" height="1279"/>
     <path fill="rgb(67,67,67)" stroke="none" d="M 18794,9389 L 18794,9389 18794,9357 18792,9325 18788,9293 18784,9261 18777,9230 18769,9199 18759,9169 18747,9138 18735,9109 18720,9081 18704,9053 18687,9027 18668,9000 18647,8976 18626,8952 18604,8930 18580,8908 18556,8887 18529,8869 18503,8851 18475,8835 18446,8821 18418,8808 18388,8796 18357,8786 18326,8779 18295,8772 18264,8766 18232,8763 18200,8761 18200,8761 18168,8761 18136,8763 18105,8767 18073,8771 18041,8778 18010,8786 17980,8797 17951,8808 17921,8821 17893,8835 17865,8852 17838,8869 17812,8887 17788,8908 17764,8929 17742,8951 17720,8976 17699,9000 17681,9027 17664,9053 17647,9081 17634,9110 17621,9139 17609,9169 17599,9200 17590,9231 17585,9262 17579,9293 17576,9325 17574,9357 17574,9357 17574,9389 17576,9421 17580,9453 17584,9485 17591,9516 17599,9547 17609,9577 17621,9608 17633,9637 17648,9665 17664,9693 17681,9719 17700,9746 17721,9770 17742,9794 17764,9816 17788,9838 17812,9859 17839,9877 17865,9895 17893,9911 17922,9925 17950,9938 17980,9950 18011,9960 18042,9968 18073,9974 18104,9980 18136,9983 18168,9985 18168,9984 18200,9984 18232,9982 18263,9978 18296,9974 18327,9967 18358,9959 18388,9948 18418,9937 18447,9924 18475,9910 18503,9893 18530,9876 18556,9858 18580,9837 18605,9816 18627,9794 18648,9770 18669,9745 18687,9719 18705,9693 18721,9664 18735,9636 18748,9607 18760,9577 18770,9546 18778,9515 18784,9485 18790,9453 18793,9421 18795,9389 18794,9389 Z"/>
     <path fill="none" stroke="rgb(255,255,255)" stroke-width="53" stroke-linejoin="round" d="M 18794,9389 L 18794,9389 18794,9357 18792,9325 18788,9293 18784,9261 18777,9230 18769,9199 18759,9169 18747,9138 18735,9109 18720,9081 18704,9053 18687,9027 18668,9000 18647,8976 18626,8952 18604,8930 18580,8908 18556,8887 18529,8869 18503,8851 18475,8835 18446,8821 18418,8808 18388,8796 18357,8786 18326,8779 18295,8772 18264,8766 18232,8763 18200,8761 18200,8761 18168,8761 18136,8763 18105,8767 18073,8771 18041,8778 18010,8786 17980,8797 17951,8808 17921,8821 17893,8835 17865,8852 17838,8869 17812,8887 17788,8908 17764,8929 17742,8951 17720,8976 17699,9000 17681,9027 17664,9053 17647,9081 17634,9110 17621,9139 17609,9169 17599,9200 17590,9231 17585,9262 17579,9293 17576,9325 17574,9357 17574,9357 17574,9389 17576,9421 17580,9453 17584,9485 17591,9516 17599,9547 17609,9577 17621,9608 17633,9637 17648,9665 17664,9693 17681,9719 17700,9746 17721,9770 17742,9794 17764,9816 17788,9838 17812,9859 17839,9877 17865,9895 17893,9911 17922,9925 17950,9938 17980,9950 18011,9960 18042,9968 18073,9974 18104,9980 18136,9983 18168,9985 18168,9984 18200,9984 18232,9982 18263,9978 18296,9974 18327,9967 18358,9959 18388,9948 18418,9937 18447,9924 18475,9910 18503,9893 18530,9876 18556,9858 18580,9837 18605,9816 18627,9794 18648,9770 18669,9745 18687,9719 18705,9693 18721,9664 18735,9636 18748,9607 18760,9577 18770,9546 18778,9515 18784,9485 18790,9453 18793,9421 18795,9389 18794,9389 Z"/>
    </g>
   </g>
   <g class="com.sun.star.drawing.CustomShape">
    <g id="id21">
     <rect class="BoundingBox" stroke="none" fill="none" x="10967" y="8564" width="1277" height="1279"/>
     <path fill="rgb(67,67,67)" stroke="none" d="M 12216,9219 L 12216,9219 12216,9187 12214,9155 12210,9123 12206,9091 12199,9060 12191,9029 12180,8999 12169,8968 12156,8939 12142,8911 12125,8883 12108,8856 12090,8830 12069,8805 12048,8781 12026,8759 12002,8737 11977,8717 11951,8699 11924,8681 11896,8665 11868,8651 11839,8638 11809,8626 11778,8616 11747,8607 11717,8602 11685,8596 11653,8593 11621,8591 11621,8591 11589,8591 11557,8593 11525,8597 11494,8601 11462,8608 11431,8616 11401,8627 11371,8638 11342,8651 11313,8665 11285,8682 11259,8699 11232,8717 11208,8738 11184,8759 11162,8781 11140,8806 11120,8830 11102,8857 11084,8883 11068,8911 11054,8940 11041,8969 11029,8999 11019,9030 11010,9061 11005,9091 10999,9123 10996,9155 10994,9187 10995,9187 10995,9219 10997,9251 11001,9283 11005,9315 11012,9346 11020,9377 11030,9407 11042,9438 11054,9467 11069,9495 11085,9523 11102,9549 11121,9576 11142,9600 11163,9624 11185,9646 11209,9668 11233,9689 11260,9707 11286,9725 11314,9741 11343,9755 11371,9768 11401,9780 11432,9790 11463,9798 11494,9804 11525,9810 11557,9813 11589,9815 11589,9814 11621,9814 11653,9812 11684,9808 11717,9804 11748,9797 11779,9789 11809,9778 11839,9767 11868,9754 11896,9740 11924,9723 11951,9706 11977,9688 12001,9667 12026,9646 12048,9624 12069,9600 12090,9575 12108,9549 12126,9523 12142,9494 12156,9466 12169,9437 12181,9407 12191,9376 12199,9345 12205,9315 12211,9283 12214,9251 12216,9219 12216,9219 Z"/>
     <path fill="none" stroke="rgb(255,255,255)" stroke-width="53" stroke-linejoin="round" d="M 12216,9219 L 12216,9219 12216,9187 12214,9155 12210,9123 12206,9091 12199,9060 12191,9029 12180,8999 12169,8968 12156,8939 12142,8911 12125,8883 12108,8856 12090,8830 12069,8805 12048,8781 12026,8759 12002,8737 11977,8717 11951,8699 11924,8681 11896,8665 11868,8651 11839,8638 11809,8626 11778,8616 11747,8607 11717,8602 11685,8596 11653,8593 11621,8591 11621,8591 11589,8591 11557,8593 11525,8597 11494,8601 11462,8608 11431,8616 11401,8627 11371,8638 11342,8651 11313,8665 11285,8682 11259,8699 11232,8717 11208,8738 11184,8759 11162,8781 11140,8806 11120,8830 11102,8857 11084,8883 11068,8911 11054,8940 11041,8969 11029,8999 11019,9030 11010,9061 11005,9091 10999,9123 10996,9155 10994,9187 10995,9187 10995,9219 10997,9251 11001,9283 11005,9315 11012,9346 11020,9377 11030,9407 11042,9438 11054,9467 11069,9495 11085,9523 11102,9549 11121,9576 11142,9600 11163,9624 11185,9646 11209,9668 11233,9689 11260,9707 11286,9725 11314,9741 11343,9755 11371,9768 11401,9780 11432,9790 11463,9798 11494,9804 11525,9810 11557,9813 11589,9815 11589,9814 11621,9814 11653,9812 11684,9808 11717,9804 11748,9797 11779,9789 11809,9778 11839,9767 11868,9754 11896,9740 11924,9723 11951,9706 11977,9688 12001,9667 12026,9646 12048,9624 12069,9600 12090,9575 12108,9549 12126,9523 12142,9494 12156,9466 12169,9437 12181,9407 12191,9376 12199,9345 12205,9315 12211,9283 12214,9251 12216,9219 12216,9219 Z"/>
    </g>
   </g>
   <g class="Group">
    <g class="com.sun.star.drawing.CustomShape">
     <g id="id22">
      <rect class="BoundingBox" stroke="none" fill="none" x="12303" y="12875" width="1639" height="924"/>
      <path fill="rgb(67,67,67)" stroke="none" d="M 13604,13771 L 13914,13286 12330,12902 12631,13548 13604,13771 Z"/>
      <path fill="none" stroke="rgb(255,255,255)" stroke-width="53" stroke-linejoin="round" d="M 13604,13771 L 13914,13286 12330,12902 12631,13548 13604,13771 Z"/>
     </g>
    </g>
    <g class="com.sun.star.drawing.CustomShape">
     <g id="id23">
      <rect class="BoundingBox" stroke="none" fill="none" x="11870" y="13305" width="2095" height="1375"/>
      <path fill="rgb(67,67,67)" stroke="none" d="M 13937,14652 L 13937,14652 13936,14600 13933,14547 13928,14493 13919,14440 13908,14386 13895,14332 13879,14279 13861,14225 13841,14172 13818,14120 13792,14069 13765,14018 13736,13969 13705,13920 13671,13873 13635,13826 13598,13782 13559,13739 13519,13698 13477,13658 13434,13620 13389,13585 13343,13551 13296,13520 13248,13490 13200,13463 13150,13439 13100,13417 13050,13397 12999,13379 12947,13364 12897,13353 12846,13344 12794,13336 12744,13333 12694,13332 12644,13332 12596,13337 12548,13343 12500,13353 12454,13365 12409,13379 12366,13397 12324,13417 12283,13439 12244,13463 12206,13490 12170,13520 12137,13551 12104,13585 12074,13620 12047,13658 12022,13698 11998,13739 11977,13782 11958,13826 11942,13872 11928,13920 11917,13968 11907,14018 11902,14069 11898,14120 11897,14172 13937,14652 Z"/>
      <path fill="none" stroke="rgb(255,255,255)" stroke-width="53" stroke-linejoin="round" d="M 13937,14652 L 13937,14652 13936,14600 13933,14547 13928,14493 13919,14440 13908,14386 13895,14332 13879,14279 13861,14225 13841,14172 13818,14120 13792,14069 13765,14018 13736,13969 13705,13920 13671,13873 13635,13826 13598,13782 13559,13739 13519,13698 13477,13658 13434,13620 13389,13585 13343,13551 13296,13520 13248,13490 13200,13463 13150,13439 13100,13417 13050,13397 12999,13379 12947,13364 12897,13353 12846,13344 12794,13336 12744,13333 12694,13332 12644,13332 12596,13337 12548,13343 12500,13353 12454,13365 12409,13379 12366,13397 12324,13417 12283,13439 12244,13463 12206,13490 12170,13520 12137,13551 12104,13585 12074,13620 12047,13658 12022,13698 11998,13739 11977,13782 11958,13826 11942,13872 11928,13920 11917,13968 11907,14018 11902,14069 11898,14120 11897,14172 13937,14652 Z"/>
     </g>
    </g>
    <g class="com.sun.star.drawing.CustomShape">
     <g id="id24">
      <rect class="BoundingBox" stroke="none" fill="none" x="11893" y="13905" width="2032" height="509"/>
      <path fill="none" stroke="rgb(255,255,255)" stroke-width="53" stroke-linejoin="round" d="M 13897,14386 L 11920,13932"/>
     </g>
    </g>
   </g>
   <g class="Group">
    <g class="com.sun.star.drawing.CustomShape">
     <g id="id25">
      <rect class="BoundingBox" stroke="none" fill="none" x="14462" y="13514" width="1684" height="628"/>
      <path fill="rgb(67,67,67)" stroke="none" d="M 15863,14114 L 16118,13561 14489,13541 14864,14114 15863,14114 Z"/>
      <path fill="none" stroke="rgb(255,255,255)" stroke-width="53" stroke-linejoin="round" d="M 15863,14114 L 16118,13561 14489,13541 14864,14114 15863,14114 Z"/>
     </g>
    </g>
    <g class="com.sun.star.drawing.CustomShape">
     <g id="id26">
      <rect class="BoundingBox" stroke="none" fill="none" x="14168" y="13832" width="2157" height="1107"/>
      <path fill="rgb(67,67,67)" stroke="none" d="M 16297,14911 L 16297,14911 16290,14859 16281,14807 16269,14755 16255,14704 16238,14653 16219,14603 16196,14553 16173,14504 16146,14457 16117,14410 16086,14365 16053,14321 16018,14278 15981,14237 15942,14198 15901,14160 15859,14125 15816,14091 15771,14059 15723,14029 15676,14002 15628,13977 15578,13954 15527,13933 15476,13915 15425,13900 15372,13886 15320,13876 15267,13868 15214,13862 15161,13859 15109,13859 15056,13862 15005,13867 14954,13874 14904,13884 14854,13897 14806,13912 14759,13930 14712,13950 14668,13972 14625,13997 14583,14024 14543,14053 14505,14085 14469,14118 14434,14153 14401,14191 14371,14230 14343,14270 14317,14313 14294,14356 14273,14401 14254,14448 14238,14495 14224,14544 14213,14593 14205,14643 14199,14694 14195,14745 14195,14797 14197,14849 14202,14901 16297,14911 Z"/>
      <path fill="none" stroke="rgb(255,255,255)" stroke-width="53" stroke-linejoin="round" d="M 16297,14911 L 16297,14911 16290,14859 16281,14807 16269,14755 16255,14704 16238,14653 16219,14603 16196,14553 16173,14504 16146,14457 16117,14410 16086,14365 16053,14321 16018,14278 15981,14237 15942,14198 15901,14160 15859,14125 15816,14091 15771,14059 15723,14029 15676,14002 15628,13977 15578,13954 15527,13933 15476,13915 15425,13900 15372,13886 15320,13876 15267,13868 15214,13862 15161,13859 15109,13859 15056,13862 15005,13867 14954,13874 14904,13884 14854,13897 14806,13912 14759,13930 14712,13950 14668,13972 14625,13997 14583,14024 14543,14053 14505,14085 14469,14118 14434,14153 14401,14191 14371,14230 14343,14270 14317,14313 14294,14356 14273,14401 14254,14448 14238,14495 14224,14544 14213,14593 14205,14643 14199,14694 14195,14745 14195,14797 14197,14849 14202,14901 16297,14911 Z"/>
     </g>
    </g>
    <g class="com.sun.star.drawing.CustomShape">
     <g id="id27">
      <rect class="BoundingBox" stroke="none" fill="none" x="14172" y="14628" width="2084" height="57"/>
      <path fill="none" stroke="rgb(255,255,255)" stroke-width="53" stroke-linejoin="round" d="M 16228,14655 L 14199,14657"/>
     </g>
    </g>
   </g>
   <g class="Group">
    <g class="com.sun.star.drawing.CustomShape">
     <g id="id28">
      <rect class="BoundingBox" stroke="none" fill="none" x="14638" y="8569" width="924" height="469"/>
      <path fill="none" stroke="rgb(255,255,255)" stroke-width="53" stroke-linejoin="round" d="M 15094,8999 L 14665,8988 14675,8596 15534,8618 15524,9010 15094,8999 Z"/>
     </g>
    </g>
    <g class="com.sun.star.drawing.CustomShape">
     <g id="id29">
      <rect class="BoundingBox" stroke="none" fill="none" x="13283" y="8534" width="924" height="469"/>
      <path fill="none" stroke="rgb(255,255,255)" stroke-width="53" stroke-linejoin="round" d="M 13739,8964 L 13310,8953 13320,8561 14179,8583 14169,8975 13739,8964 Z"/>
     </g>
    </g>
    <g class="com.sun.star.drawing.CustomShape">
     <g id="id30">
      <rect class="BoundingBox" stroke="none" fill="none" x="14146" y="8755" width="552" height="64"/>
      <path fill="none" stroke="rgb(255,255,255)" stroke-width="53" stroke-linejoin="round" d="M 14670,8791 L 14173,8782"/>
     </g>
    </g>
    <g class="com.sun.star.drawing.CustomShape">
     <g id="id31">
      <rect class="BoundingBox" stroke="none" fill="none" x="15503" y="8790" width="620" height="66"/>
      <path fill="none" stroke="rgb(255,255,255)" stroke-width="53" stroke-linejoin="round" d="M 16095,8828 L 15530,8817"/>
     </g>
    </g>
   </g>
   <g class="com.sun.star.drawing.CustomShape">
    <g id="id32">
     <rect class="BoundingBox" stroke="none" fill="none" x="14066" y="9001" width="733" height="312"/>
     <path fill="none" stroke="rgb(255,255,255)" stroke-width="53" stroke-linejoin="round" d="M 14771,9064 L 14582,9285 14393,9060 14241,9245 14093,9028"/>
    </g>
   </g>
   <g class="Group">
    <g class="com.sun.star.drawing.CustomShape">
     <g id="id33">
      <rect class="BoundingBox" stroke="none" fill="none" x="15517" y="7466" width="1284" height="4387"/>
      <path fill="rgb(67,67,67)" stroke="none" d="M 16267,7493 L 16773,10373 16134,11825 15544,10501 15966,7496 16267,7493 Z"/>
      <path fill="none" stroke="rgb(255,255,255)" stroke-width="53" stroke-linejoin="round" d="M 16267,7493 L 16773,10373 16134,11825 15544,10501 15966,7496 16267,7493 Z"/>
     </g>
    </g>
    <g class="com.sun.star.drawing.CustomShape">
     <g id="id34">
      <rect class="BoundingBox" stroke="none" fill="none" x="15517" y="9660" width="1275" height="870"/>
      <path fill="rgb(67,67,67)" stroke="none" d="M 16764,10369 L 16171,9687 15544,10502 16764,10369 Z"/>
      <path fill="none" stroke="rgb(255,255,255)" stroke-width="53" stroke-linejoin="round" d="M 16764,10369 L 16171,9687 15544,10502"/>
     </g>
    </g>
   </g>
   <g class="Group">
    <g class="com.sun.star.drawing.CustomShape">
     <g id="id35">
      <rect class="BoundingBox" stroke="none" fill="none" x="14454" y="6044" width="1880" height="2372"/>
      <path fill="rgb(67,67,67)" stroke="none" d="M 15000,7173 L 15240,6071 16306,7484 14481,8388 15000,7173 Z"/>
      <path fill="none" stroke="rgb(255,255,255)" stroke-width="53" stroke-linejoin="round" d="M 15000,7173 L 15240,6071 16306,7484 14481,8388 15000,7173 Z"/>
     </g>
    </g>
    <g class="com.sun.star.drawing.CustomShape">
     <g id="id36">
      <rect class="BoundingBox" stroke="none" fill="none" x="13084" y="6005" width="1339" height="2372"/>
      <path fill="rgb(67,67,67)" stroke="none" d="M 14302,7014 L 14360,6032 13111,7379 14395,8349 14302,7014 Z"/>
      <path fill="none" stroke="rgb(255,255,255)" stroke-width="53" stroke-linejoin="round" d="M 14302,7014 L 14360,6032 13111,7379 14395,8349 14302,7014 Z"/>
     </g>
    </g>
    <g class="com.sun.star.drawing.CustomShape">
     <g id="id37">
      <rect class="BoundingBox" stroke="none" fill="none" x="13541" y="5801" width="2149" height="2648"/>
      <path fill="rgb(67,67,67)" stroke="none" d="M 14681,5828 L 15662,7454 14451,8421 13568,7400 14681,5828 Z"/>
      <path fill="none" stroke="rgb(255,255,255)" stroke-width="53" stroke-linejoin="round" d="M 14681,5828 L 15662,7454 14451,8421 13568,7400 14681,5828 Z"/>
     </g>
    </g>
   </g>
   <g class="com.sun.star.drawing.PolyPolygonShape">
    <g id="id38">
     <rect class="BoundingBox" stroke="none" fill="none" x="14253" y="9081" width="332" height="371"/>
     <path fill="rgb(255,255,255)" stroke="none" d="M 14399,9082 L 14254,9250 14420,9450 14583,9289 14399,9082 Z"/>
     <path fill="none" stroke="rgb(255,255,255)" d="M 14399,9082 L 14254,9250 14420,9450 14583,9289 14399,9082 Z"/>
    </g>
   </g>
   <g class="com.sun.star.drawing.PolyLineShape">
    <g id="id39">
     <rect class="BoundingBox" stroke="none" fill="none" x="13472" y="8270" width="591" height="733"/>
     <path fill="none" stroke="rgb(255,255,255)" stroke-width="53" stroke-linejoin="round" d="M 13499,8975 L 13799,8297 14035,8975"/>
    </g>
   </g>
   <g class="com.sun.star.drawing.PolyLineShape">
    <g id="id40">
     <rect class="BoundingBox" stroke="none" fill="none" x="14744" y="8313" width="666" height="725"/>
     <path fill="none" stroke="rgb(255,255,255)" stroke-width="53" stroke-linejoin="round" d="M 15382,9010 L 15095,8340 14771,9010"/>
    </g>
   </g>
  </g>
 </g>
</svg>